<?xml version="1.0" encoding="UTF-8"?> <svg xmlns="http://www.w3.org/2000/svg" xmlns:xlink="http://www.w3.org/1999/xlink" viewBox="0 0 680.59 128"><defs><style>.cls-1{fill:#f89c25;}.cls-2{fill:#f4f4f4;}.cls-3{fill:#1a0b33;}.cls-4{fill:url(#linear-gradient);}</style><linearGradient id="linear-gradient" x1="16.93" y1="23.57" x2="100.47" y2="107.11" gradientUnits="userSpaceOnUse"><stop offset="0" stop-color="#f88b00"></stop><stop offset="1" stop-color="#fcc753"></stop></linearGradient></defs><title>DemandTools Full Color Dark</title><g id="Layer_2" data-name="Layer 2"><g id="Layer_1-2" data-name="Layer 1"><path class="cls-1" d="M157.08,92.86V35h24.28c18.21,0,31.31,10.93,31.31,28.88s-13.1,29-31.22,29Zm40.32-29C197.4,55,192,48,181.45,48H172V79.85h9.37C191.51,79.85,197.4,72.48,197.4,63.89Z"></path><path class="cls-1" d="M216.52,71.87c0-12.14,9.19-21.94,22.29-21.94,12.4,0,21.42,9.1,21.42,23.33v2.86H230.4c.78,3.9,4.42,7.46,10.49,7.46,3,0,8.07-1.3,10.41-3.56l5.64,8.33c-4.17,3.73-11.11,5.55-17.52,5.55C226.49,93.9,216.52,85.49,216.52,71.87Zm22.29-11.62a8.28,8.28,0,0,0-8.59,7.2h17.26C247.13,64.5,245,60.25,238.81,60.25Z"></path><path class="cls-1" d="M317.89,92.86V67.36c0-3.21-1.56-5.64-5.55-5.64a9.67,9.67,0,0,0-7.54,4.08V92.86H291.44V67.36c0-3.21-1.47-5.64-5.55-5.64-3.56,0-6.07,2.34-7.46,4.08V92.86H265.07V51h13.36v5.12c1.82-2.43,7.2-6.16,13.79-6.16,6,0,10.15,2.51,11.88,7.46a18,18,0,0,1,14.49-7.46c7.72,0,12.57,4,12.57,12.57V92.86Z"></path><path class="cls-1" d="M363.53,92.86V88.7c-2.6,3.12-7.63,5.2-13,5.2-6.42,0-14.4-4.34-14.4-13.79,0-10.15,8-13.44,14.4-13.44,5.55,0,10.49,1.73,13,4.85v-5c0-3.64-3.12-6.07-8.5-6.07a18.66,18.66,0,0,0-11.88,4.43l-4.77-8.42c5.38-4.59,12.58-6.5,19-6.5,10.06,0,19.51,3.73,19.51,16.74V92.86Zm0-10.76V78.37c-1.38-1.9-4.51-2.94-7.45-2.94-3.56,0-6.68,1.56-6.68,4.85s3.12,4.86,6.68,4.86C359,85.14,362.15,84.1,363.53,82.1Z"></path><path class="cls-1" d="M411.35,92.86V68.66c0-5.12-2.69-6.94-6.85-6.94a10.32,10.32,0,0,0-8.15,4.08V92.86H383V51h13.36v5.12a18.92,18.92,0,0,1,14.48-6.16c9.54,0,13.88,5.55,13.88,13.27V92.86Z"></path><path class="cls-1" d="M460.62,92.86V88a16,16,0,0,1-12.4,5.9c-10.32,0-18.56-7.81-18.56-22,0-13.7,8.06-21.94,18.56-21.94a15.57,15.57,0,0,1,12.4,6V35h13.27V92.86Zm0-14.57V65.45a11,11,0,0,0-8.07-3.73c-5.29,0-9.19,3.91-9.19,10.15s3.9,10.23,9.19,10.23A11,11,0,0,0,460.62,78.29Z"></path><path class="cls-2" d="M497.47,92.86V48H481.25V35h47.27V48H512.39V92.86Z"></path><path class="cls-2" d="M522.54,71.87c0-11.8,8.58-21.94,22.81-21.94,14.39,0,22.89,10.14,22.89,21.94s-8.5,22-22.89,22C531.12,93.9,522.54,83.67,522.54,71.87Zm32,0c0-5.55-3.3-10.15-9.19-10.15s-9,4.6-9,10.15,3.21,10.23,9,10.23S554.54,77.51,554.54,71.87Z"></path><path class="cls-2" d="M573.15,71.87c0-11.8,8.58-21.94,22.81-21.94,14.39,0,22.89,10.14,22.89,21.94s-8.5,22-22.89,22C581.73,93.9,573.15,83.67,573.15,71.87Zm32,0c0-5.55-3.3-10.15-9.19-10.15s-9,4.6-9,10.15,3.2,10.23,9,10.23S605.15,77.51,605.15,71.87Z"></path><path class="cls-2" d="M623.79,92.86V35h13.36V92.86Z"></path><path class="cls-2" d="M641.9,87.48l5.56-9.19a26.15,26.15,0,0,0,14.74,5.55c4,0,5.64-1.3,5.64-3.21,0-5.46-24.37-.09-24.37-16.91,0-7.37,6.33-13.79,17.95-13.79a29.48,29.48,0,0,1,17.52,5.55l-5.12,8.84a18.74,18.74,0,0,0-12.31-4.59c-3.13,0-5.3,1.3-5.3,3,0,4.86,24.38.09,24.38,17.26,0,8-7,13.88-19.08,13.88C654.05,93.9,646.33,91.38,641.9,87.48Z"></path><path class="cls-3" d="M107.74,88.79V39.21A7.44,7.44,0,0,0,104,32.76L61.08,8a7.45,7.45,0,0,0-7.45,0L10.7,32.76A7.45,7.45,0,0,0,7,39.21V88.79a7.45,7.45,0,0,0,3.72,6.45L53.63,120a7.45,7.45,0,0,0,7.45,0L104,95.24A7.44,7.44,0,0,0,107.74,88.79Z"></path><path class="cls-4" d="M57.36,7a7.39,7.39,0,0,1,3.72,1L104,32.76a7.44,7.44,0,0,1,3.73,6.45V88.79A7.44,7.44,0,0,1,104,95.24L61.08,120a7.44,7.44,0,0,1-7.45,0L10.7,95.24A7.45,7.45,0,0,1,7,88.79V39.21a7.45,7.45,0,0,1,3.72-6.45L53.63,8a7.43,7.43,0,0,1,3.73-1m0-7a14.51,14.51,0,0,0-7.22,1.93L7.21,26.72A14.47,14.47,0,0,0,0,39.21V88.79a14.47,14.47,0,0,0,7.21,12.49l42.93,24.79a14.45,14.45,0,0,0,14.43,0l42.93-24.79a14.48,14.48,0,0,0,7.22-12.49V39.21a14.48,14.48,0,0,0-7.22-12.49L64.57,1.93A14.47,14.47,0,0,0,57.36,0Z"></path><path class="cls-1" d="M26.88,80.73V47.27h14C51.46,47.27,59,53.59,59,64S51.46,80.73,41,80.73ZM50.2,64c0-5.16-3.11-9.17-9.23-9.17H35.51V73.2h5.41A8.88,8.88,0,0,0,50.2,64Z"></path><path class="cls-1" d="M69.88,80.73V54.8H60.5V47.27H87.84V54.8H78.51V80.73Z"></path></g></g></svg> 